<svg width="360" height="93" viewBox="0 0 360 93" fill="none" xmlns="http://www.w3.org/2000/svg">
<path d="M128.657 52.7021C130.352 57.7813 135.228 59.2085 138.45 59.2925C143.598 59.4604 146.633 58.4529 149.667 57.0887C150.755 56.6689 151.948 56.6689 152.618 57.9282C152.952 58.7678 154.564 63.1754 154.982 64.1828C155.485 65.5261 154.899 66.4705 154.145 66.9743C149.248 70.0176 142.426 71.025 136.609 71.025C120.83 71.025 112.062 60.4468 112.062 47.434C112.062 34.4001 120.746 23.9269 135.939 23.9269C149.186 23.9269 157.033 34.4211 157.033 47.434C157.033 51.2329 156.615 52.6811 152.053 52.6811C150.148 52.7021 143.661 52.7021 128.657 52.7021ZM128.322 44.2437H141.903C141.903 39.0806 139.873 35.6175 135.918 35.6175C131.272 35.6175 128.322 38.9966 128.322 44.2437Z" fill="#1A2144"/>
<path d="M207.675 70.0385C205.478 70.0385 195.287 70.0385 195.287 70.0385C193.759 70.0385 192.839 69.3669 192.085 67.9187C191.667 67.2471 188.13 60.4678 185.075 54.8009H181.203V67.9187C181.203 69.0941 180.283 70.0385 179.09 70.0385H166.701C165.613 70.0385 164.588 69.1151 164.588 67.9187V12.9499C164.588 11.8585 165.508 10.83 166.701 10.83H179.09C180.262 10.83 181.203 11.8375 181.203 12.9499V40.2769H184.991C187.691 34.6939 190.892 27.9356 191.227 27.243C192.064 25.7109 192.922 25.1232 194.429 25.1232C194.429 25.1232 204.725 25.1232 206.901 25.1232C209.35 25.1232 209.852 26.1306 208.931 27.7467C208.261 29.09 200.665 44.6635 199.054 47.5389C200.749 50.4143 209.098 66.0717 209.768 67.415C210.626 69.1151 210.124 70.0385 207.675 70.0385Z" fill="#1A2144"/>
<path d="M263.089 28.0825C262.336 30.1184 249.257 66.4915 248.587 67.9187C247.917 69.4509 247.415 70.0385 245.887 70.0385H232.725C231.197 70.0385 230.695 69.4509 230.025 67.9187C229.355 66.4705 216.276 30.0974 215.523 28.0825C214.853 26.1306 215.607 25.1232 217.051 25.1232C218.139 25.1232 229.439 25.1232 229.439 25.1232C231.971 25.1232 232.39 25.8788 233.227 28.0825C233.645 29.2579 239.295 52.1983 239.295 52.1983C239.295 52.1983 244.946 29.2789 245.364 28.0825C246.201 25.8788 246.62 25.1232 249.152 25.1232C249.152 25.1232 260.452 25.1232 261.54 25.1232C263.005 25.1232 263.759 26.1306 263.089 28.0825Z" fill="#1A2144"/>
<path d="M287.552 9.29788V18.0921C287.552 19.2674 286.631 20.2119 285.439 20.2119H273.05C271.962 20.2119 270.937 19.2884 270.937 18.0921V9.29788C270.937 8.12252 271.941 7.17804 273.05 7.17804H285.439C286.631 7.19903 287.552 8.20648 287.552 9.29788ZM287.552 27.243V67.9397C287.552 69.1151 286.631 70.0596 285.439 70.0596H273.05C271.962 70.0596 270.937 69.1361 270.937 67.9397V27.243C270.937 26.0677 271.941 25.1232 273.05 25.1232H285.439C286.631 25.1232 287.552 26.0467 287.552 27.243Z" fill="#1A2144"/>
<path d="M328.882 69.9546C326.601 70.4584 322.479 71.046 316.577 71.046C308.646 71.046 302.41 67.2471 302.41 57.6764C302.41 57.6764 302.41 57.6764 302.41 39.6682H295.588C294.416 39.6682 293.474 38.7447 293.474 37.5484V27.1381C293.474 26.0467 294.395 25.1022 295.588 25.1022H302.41V15.8253C302.41 14.7339 303.415 13.7894 304.524 13.7894H316.996C318.084 13.7894 319.026 14.7129 319.026 15.8253C319.026 15.8253 319.026 19.7921 319.026 25.1232H326.455C327.627 25.1232 328.568 26.0467 328.568 27.1591V37.5694C328.568 38.7447 327.648 39.6892 326.455 39.6892H319.026C319.026 45.0203 319.026 49.3229 319.026 50.3514C319.026 56.8578 320.47 57.4665 327.794 56.522C329.405 56.2701 329.657 57.1936 329.824 58.39C329.991 59.3135 330.494 64.7285 330.661 66.7644C330.807 68.7793 330.222 69.6188 328.882 69.9546Z" fill="#1A2144"/>
<path d="M355.773 9.29788V18.0921C355.773 19.2674 354.852 20.2119 353.659 20.2119H341.271C340.183 20.2119 339.157 19.2884 339.157 18.0921V9.29788C339.157 8.12252 340.162 7.17804 341.271 7.17804H353.659C354.852 7.19903 355.773 8.20648 355.773 9.29788ZM355.773 27.243V67.9397C355.773 69.1151 354.852 70.0596 353.659 70.0596H341.271C340.183 70.0596 339.157 69.1361 339.157 67.9397V27.243C339.157 26.0677 340.162 25.1232 341.271 25.1232H353.659C354.852 25.1232 355.773 26.0467 355.773 27.243Z" fill="#1A2144"/>
<path d="M81.6974 52.786L66.9442 75.0338H21.4498L14.9835 68.6113V24.6615C14.9835 24.5145 15.0463 24.3676 15.1509 24.2627L21.0522 18.3229C21.1568 18.218 21.3033 18.155 21.4498 18.155H61.6498C61.7962 18.155 61.9427 18.218 62.0474 18.3229L68.0324 24.3676C68.137 24.4726 68.1998 24.6195 68.1998 24.7664V33.8124H36.4751C36.3286 33.8124 36.1821 33.8754 36.0775 33.9803L32.3944 37.6953C32.2898 37.8002 32.227 37.9472 32.227 38.0941V44.6215H36.8518L39.5931 47.371C39.6978 47.4759 39.8443 47.5389 39.9908 47.5389H51.2074C51.3539 47.5389 51.5004 47.4759 51.605 47.371L54.3255 44.6215H58.4689L61.2103 47.371C61.3149 47.4759 61.4614 47.5389 61.6079 47.5389H72.8246C72.971 47.5389 73.1175 47.4759 73.2222 47.371L75.9426 44.6215H78.391C78.7049 44.6215 78.9351 44.3696 78.9351 44.0758V33.7915V20.3168C78.9351 20.1699 78.8723 20.023 78.7677 19.9181L66.5047 7.53485C66.4001 7.42991 66.2536 7.36694 66.1071 7.36694H16.9506C16.8041 7.36694 16.6576 7.42991 16.553 7.53485L4.37371 19.8341C4.26908 19.939 4.2063 20.065 4.2063 20.2119V72.893C4.2063 73.0399 4.26908 73.1868 4.37371 73.2918L16.8669 85.675C16.9715 85.7799 17.118 85.8429 17.2436 85.8429H73.4524C73.6407 85.8429 73.8081 85.738 73.9127 85.591L94.1906 53.4157C94.4208 53.0379 94.1488 52.5761 93.7302 52.5761H82.1369C81.9695 52.5342 81.7811 52.6391 81.6974 52.786Z" fill="#703AD8"/>
<path d="M74.4149 52.5342H67.2371C67.0488 52.5342 66.8814 52.6181 66.7767 52.7651L54.6603 70.5633C54.4091 70.9201 54.6812 71.4238 55.1206 71.4238H62.3612C62.5496 71.4238 62.717 71.3399 62.8216 71.172L74.8753 53.3737C75.1264 53.0379 74.8753 52.5342 74.4149 52.5342Z" fill="#703AD8"/>
<path d="M61.8381 52.5342H54.6603C54.4719 52.5342 54.3045 52.6181 54.1999 52.7651L44.49 66.9533C44.2388 67.3101 44.5109 67.8138 44.9503 67.8138H52.17C52.3584 67.8138 52.5258 67.7298 52.6304 67.5829L62.2985 53.3947C62.5496 53.0379 62.2776 52.5342 61.8381 52.5342Z" fill="#703AD8"/>
<path d="M35.638 63.0074H42.8367C43.0251 63.0074 43.1925 62.9235 43.2971 62.7766L49.6797 53.4157C49.9308 53.0589 49.6588 52.5552 49.2193 52.5552H42.0415C41.8532 52.5552 41.6858 52.6391 41.5811 52.786L35.1776 62.1469C34.9265 62.5037 35.1776 63.0074 35.638 63.0074Z" fill="#703AD8"/>
</svg>
